<?xml version="1.0" standalone="no"?>
<!DOCTYPE svg PUBLIC "-//W3C//DTD SVG 20010904//EN"
 "http://www.w3.org/TR/2001/REC-SVG-20010904/DTD/svg10.dtd">
<svg version="1.0" xmlns="http://www.w3.org/2000/svg"
 width="512.000000pt" height="512.000000pt" viewBox="0 0 512.000000 512.000000"
 preserveAspectRatio="xMidYMid meet">

<g transform="translate(0.000000,512.000000) scale(0.100000,-0.100000)"
fill="#000000" stroke="none">
<path d="M1706 5105 c-61 -23 -102 -60 -130 -117 l-26 -52 0 -2375 c0 -2370 0
-2376 21 -2421 42 -94 107 -134 214 -134 110 0 182 48 219 146 15 39 16 249
14 2424 l-3 2381 -30 49 c-58 93 -181 136 -279 99z"/>
<path d="M2465 4231 c-48 -22 -97 -70 -122 -120 -17 -34 -18 -116 -21 -1521
-2 -1063 0 -1500 8 -1537 16 -72 60 -129 123 -159 143 -66 306 10 337 159 7
36 9 510 8 1537 -3 1406 -4 1487 -21 1521 -43 86 -125 139 -217 139 -32 0 -72
-8 -95 -19z"/>
<path d="M4003 4225 c-60 -30 -100 -78 -119 -143 -21 -69 -21 -2977 0 -3046
33 -109 125 -172 241 -164 90 6 150 44 190 123 l30 59 0 1510 0 1511 -22 41
c-65 121 -202 168 -320 109z"/>
<path d="M938 3806 c-85 -31 -140 -94 -158 -180 -7 -36 -10 -375 -8 -1096 3
-982 4 -1047 21 -1085 83 -185 343 -190 433 -9 18 38 19 74 19 1124 0 1039 -1
1086 -19 1120 -58 109 -185 165 -288 126z"/>
<path d="M3235 3361 c-22 -10 -54 -34 -72 -52 -65 -69 -63 -42 -63 -753 l0
-644 28 -53 c38 -73 100 -112 188 -117 78 -5 136 14 183 60 70 68 66 25 69
733 2 464 0 652 -9 682 -15 54 -72 121 -123 144 -54 25 -148 24 -201 0z"/>
<path d="M131 2924 c-59 -30 -105 -85 -122 -147 -6 -24 -9 -119 -7 -241 3
-183 5 -205 25 -241 27 -51 57 -79 113 -104 84 -38 185 -23 252 37 72 65 78
87 78 331 0 198 -2 218 -21 258 -57 118 -199 166 -318 107z"/>
<path d="M4801 2937 c-50 -19 -106 -71 -130 -120 -19 -40 -21 -60 -21 -258 0
-244 6 -266 78 -331 67 -60 168 -75 252 -37 56 25 86 53 113 104 21 38 22 54
22 266 l0 226 -30 49 c-43 69 -109 107 -189 111 -33 1 -76 -3 -95 -10z"/>
</g>
</svg>
